  0
SECTION
  2
HEADER
  9
$ACADVER
  1
AC1015
  9
$ACADMAINTVER
 70
    13
  9
$DWGCODEPAGE
  3
ANSI_1251
  9
$INSBASE
 10
0.0
 20
0.0
 30
0.0
  9
$EXTMIN
 10
48.31370462338698
 20
104.4760389823707
 30
0.0
  9
$EXTMAX
 10
245.2284004201195
 20
285.8547573654029
 30
0.0
  9
$LIMMIN
 10
0.0
 20
0.0
  9
$LIMMAX
 10
420.0
 20
297.0
  9
$ORTHOMODE
 70
     0
  9
$REGENMODE
 70
     1
  9
$FILLMODE
 70
     1
  9
$QTEXTMODE
 70
     0
  9
$MIRRTEXT
 70
     1
  9
$LTSCALE
 40
1.0
  9
$ATTMODE
 70
     1
  9
$TEXTSIZE
 40
2.5
  9
$TRACEWID
 40
1.0
  9
$TEXTSTYLE
  7
Standard
  9
$CLAYER
  8
0
  9
$CELTYPE
  6
ByLayer
  9
$CECOLOR
 62
   256
  9
$CELTSCALE
 40
1.0
  9
$DISPSILH
 70
     0
  9
$DIMSCALE
 40
1.0
  9
$DIMASZ
 40
2.5
  9
$DIMEXO
 40
0.625
  9
$DIMDLI
 40
3.75
  9
$DIMRND
 40
0.0
  9
$DIMDLE
 40
0.0
  9
$DIMEXE
 40
1.25
  9
$DIMTP
 40
0.0
  9
$DIMTM
 40
0.0
  9
$DIMTXT
 40
2.5
  9
$DIMCEN
 40
2.5
  9
$DIMTSZ
 40
0.0
  9
$DIMTOL
 70
     0
  9
$DIMLIM
 70
     0
  9
$DIMTIH
 70
     0
  9
$DIMTOH
 70
     0
  9
$DIMSE1
 70
     0
  9
$DIMSE2
 70
     0
  9
$DIMTAD
 70
     1
  9
$DIMZIN
 70
     8
  9
$DIMBLK
  1

  9
$DIMASO
 70
     1
  9
$DIMSHO
 70
     1
  9
$DIMPOST
  1

  9
$DIMAPOST
  1

  9
$DIMALT
 70
     0
  9
$DIMALTD
 70
     3
  9
$DIMALTF
 40
0.03937007874016
  9
$DIMLFAC
 40
1.0
  9
$DIMTOFL
 70
     1
  9
$DIMTVP
 40
0.0
  9
$DIMTIX
 70
     0
  9
$DIMSOXD
 70
     0
  9
$DIMSAH
 70
     0
  9
$DIMBLK1
  1

  9
$DIMBLK2
  1

  9
$DIMSTYLE
  2
ISO-25
  9
$DIMCLRD
 70
     0
  9
$DIMCLRE
 70
     0
  9
$DIMCLRT
 70
     0
  9
$DIMTFAC
 40
1.0
  9
$DIMGAP
 40
0.625
  9
$DIMJUST
 70
     0
  9
$DIMSD1
 70
     0
  9
$DIMSD2
 70
     0
  9
$DIMTOLJ
 70
     0
  9
$DIMTZIN
 70
     8
  9
$DIMALTZ
 70
     0
  9
$DIMALTTZ
 70
     0
  9
$DIMUPT
 70
     0
  9
$DIMDEC
 70
     2
  9
$DIMTDEC
 70
     2
  9
$DIMALTU
 70
     2
  9
$DIMALTTD
 70
     3
  9
$DIMTXSTY
  7
Standard
  9
$DIMAUNIT
 70
     0
  9
$DIMADEC
 70
     0
  9
$DIMALTRND
 40
0.0
  9
$DIMAZIN
 70
     0
  9
$DIMDSEP
 70
    44
  9
$DIMATFIT
 70
     3
  9
$DIMFRAC
 70
     0
  9
$DIMLDRBLK
  1

  9
$DIMLUNIT
 70
     2
  9
$DIMLWD
 70
    -2
  9
$DIMLWE
 70
    -2
  9
$DIMTMOVE
 70
     0
  9
$LUNITS
 70
     2
  9
$LUPREC
 70
     4
  9
$SKETCHINC
 40
1.0
  9
$FILLETRAD
 40
10.0
  9
$AUNITS
 70
     0
  9
$AUPREC
 70
     0
  9
$MENU
  1
.
  9
$ELEVATION
 40
0.0
  9
$PELEVATION
 40
0.0
  9
$THICKNESS
 40
0.0
  9
$LIMCHECK
 70
     0
  9
$CHAMFERA
 40
10.0
  9
$CHAMFERB
 40
10.0
  9
$CHAMFERC
 40
20.0
  9
$CHAMFERD
 40
0.0
  9
$SKPOLY
 70
     0
  9
$TDCREATE
 40
2452976.954266875
  9
$TDUCREATE
 40
2452976.829266875
  9
$TDUPDATE
 40
2452976.983772268
  9
$TDUUPDATE
 40
2452976.858772268
  9
$TDINDWG
 40
0.0295219676
  9
$TDUSRTIMER
 40
0.0295067824
  9
$USRTIMER
 70
     1
  9
$ANGBASE
 50
0.0
  9
$ANGDIR
 70
     0
  9
$PDMODE
 70
     0
  9
$PDSIZE
 40
0.0
  9
$PLINEWID
 40
0.0
  9
$SPLFRAME
 70
     0
  9
$SPLINETYPE
 70
     6
  9
$SPLINESEGS
 70
     8
  9
$HANDSEED
  5
66
  9
$SURFTAB1
 70
     6
  9
$SURFTAB2
 70
     6
  9
$SURFTYPE
 70
     6
  9
$SURFU
 70
     6
  9
$SURFV
 70
     6
  9
$UCSBASE
  2

  9
$UCSNAME
  2

  9
$UCSORG
 10
0.0
 20
0.0
 30
0.0
  9
$UCSXDIR
 10
1.0
 20
0.0
 30
0.0
  9
$UCSYDIR
 10
0.0
 20
1.0
 30
0.0
  9
$UCSORTHOREF
  2

  9
$UCSORTHOVIEW
 70
     0
  9
$UCSORGTOP
 10
0.0
 20
0.0
 30
0.0
  9
$UCSORGBOTTOM
 10
0.0
 20
0.0
 30
0.0
  9
$UCSORGLEFT
 10
0.0
 20
0.0
 30
0.0
  9
$UCSORGRIGHT
 10
0.0
 20
0.0
 30
0.0
  9
$UCSORGFRONT
 10
0.0
 20
0.0
 30
0.0
  9
$UCSORGBACK
 10
0.0
 20
0.0
 30
0.0
  9
$PUCSBASE
  2

  9
$PUCSNAME
  2

  9
$PUCSORG
 10
0.0
 20
0.0
 30
0.0
  9
$PUCSXDIR
 10
1.0
 20
0.0
 30
0.0
  9
$PUCSYDIR
 10
0.0
 20
1.0
 30
0.0
  9
$PUCSORTHOREF
  2

  9
$PUCSORTHOVIEW
 70
     0
  9
$PUCSORGTOP
 10
0.0
 20
0.0
 30
0.0
  9
$PUCSORGBOTTOM
 10
0.0
 20
0.0
 30
0.0
  9
$PUCSORGLEFT
 10
0.0
 20
0.0
 30
0.0
  9
$PUCSORGRIGHT
 10
0.0
 20
0.0
 30
0.0
  9
$PUCSORGFRONT
 10
0.0
 20
0.0
 30
0.0
  9
$PUCSORGBACK
 10
0.0
 20
0.0
 30
0.0
  9
$USERI1
 70
     0
  9
$USERI2
 70
     0
  9
$USERI3
 70
     0
  9
$USERI4
 70
     0
  9
$USERI5
 70
     0
  9
$USERR1
 40
0.0
  9
$USERR2
 40
0.0
  9
$USERR3
 40
0.0
  9
$USERR4
 40
0.0
  9
$USERR5
 40
0.0
  9
$WORLDVIEW
 70
     1
  9
$SHADEDGE
 70
     3
  9
$SHADEDIF
 70
    70
  9
$TILEMODE
 70
     1
  9
$MAXACTVP
 70
    64
  9
$PINSBASE
 10
0.0
 20
0.0
 30
0.0
  9
$PLIMCHECK
 70
     0
  9
$PEXTMIN
 10
1.000000000000000E+20
 20
1.000000000000000E+20
 30
1.000000000000000E+20
  9
$PEXTMAX
 10
-1.000000000000000E+20
 20
-1.000000000000000E+20
 30
-1.000000000000000E+20
  9
$PLIMMIN
 10
0.0
 20
0.0
  9
$PLIMMAX
 10
420.0
 20
297.0
  9
$UNITMODE
 70
     0
  9
$VISRETAIN
 70
     1
  9
$PLINEGEN
 70
     0
  9
$PSLTSCALE
 70
     1
  9
$TREEDEPTH
 70
  3020
  9
$CMLSTYLE
  2
Standard
  9
$CMLJUST
 70
     0
  9
$CMLSCALE
 40
20.0
  9
$PROXYGRAPHICS
 70
     1
  9
$MEASUREMENT
 70
     1
  9
$CELWEIGHT
370
    -1
  9
$ENDCAPS
280
     0
  9
$JOINSTYLE
280
     0
  9
$LWDISPLAY
290
     0
  9
$INSUNITS
 70
     4
  9
$HYPERLINKBASE
  1

  9
$STYLESHEET
  1

  9
$XEDIT
290
     1
  9
$CEPSNTYPE
380
     0
  9
$PSTYLEMODE
290
     1
  9
$FINGERPRINTGUID
  2
{680EF566-F859-4E36-A4C0-65DB4299AEA0}
  9
$VERSIONGUID
  2
{902CDC3E-882C-4331-B47D-DA04CE8BE571}
  9
$EXTNAMES
290
     1
  9
$PSVPSCALE
 40
0.0
  9
$OLESTARTUP
290
     0
  0
ENDSEC
  0
SECTION
  2
CLASSES
  0
CLASS
  1
ACDBDICTIONARYWDFLT
  2
AcDbDictionaryWithDefault
  3
AutoCAD 2000
 90
        0
280
     0
281
     0
  0
CLASS
  1
ACDBPLACEHOLDER
  2
AcDbPlaceHolder
  3
AutoCAD 2000
 90
        0
280
     0
281
     0
  0
CLASS
  1
LAYOUT
  2
AcDbLayout
  3
AutoCAD 2000
 90
        0
280
     0
281
     0
  0
CLASS
  1
DICTIONARYVAR
  2
AcDbDictionaryVar
  3
AutoCAD 2000
 90
        0
280
     0
281
     0
  0
ENDSEC
  0
SECTION
  2
TABLES
  0
TABLE
  2
VPORT
  5
8
330
0
100
AcDbSymbolTable
 70
    16
  0
VPORT
  5
65
330
8
100
AcDbSymbolTableRecord
100
AcDbViewportTableRecord
  2
*Active
 70
     0
 10
0.0
 20
0.0
 11
1.0
 21
1.0
 12
231.7188118811881
 22
148.5
 13
0.0
 23
0.0
 14
10.0
 24
10.0
 15
10.0
 25
10.0
 16
0.0
 26
0.0
 36
1.0
 17
0.0
 27
0.0
 37
0.0
 40
296.428001746283
 41
1.563492063492063
 42
50.0
 43
0.0
 44
0.0
 50
0.0
 51
0.0
 71
     0
 72
   100
 73
     1
 74
     3
 75
     0
 76
     0
 77
     0
 78
     0
281
     0
 65
     1
110
0.0
120
0.0
130
0.0
111
1.0
121
0.0
131
0.0
112
0.0
122
1.0
132
0.0
 79
     0
146
0.0
  0
ENDTAB
  0
TABLE
  2
LTYPE
  5
5
330
0
100
AcDbSymbolTable
 70
     1
  0
LTYPE
  5
14
330
5
100
AcDbSymbolTableRecord
100
AcDbLinetypeTableRecord
  2
ByBlock
 70
     0
  3

 72
    65
 73
     0
 40
0.0
  0
LTYPE
  5
15
330
5
100
AcDbSymbolTableRecord
100
AcDbLinetypeTableRecord
  2
ByLayer
 70
     0
  3

 72
    65
 73
     0
 40
0.0
  0
LTYPE
  5
16
330
5
100
AcDbSymbolTableRecord
100
AcDbLinetypeTableRecord
  2
Continuous
 70
     0
  3
Solid line
 72
    65
 73
     0
 40
0.0
  0
ENDTAB
  0
TABLE
  2
LAYER
  5
2
330
0
100
AcDbSymbolTable
 70
     1
  0
LAYER
  5
10
330
2
100
AcDbSymbolTableRecord
100
AcDbLayerTableRecord
  2
0
 70
     0
 62
     7
  6
Continuous
370
    -3
390
F
  0
ENDTAB
  0
TABLE
  2
STYLE
  5
3
330
0
100
AcDbSymbolTable
 70
     1
  0
STYLE
  5
11
330
3
100
AcDbSymbolTableRecord
100
AcDbTextStyleTableRecord
  2
Standard
 70
     0
 40
0.0
 41
1.0
 50
0.0
 71
     0
 42
2.5
  3
txt
  4

  0
ENDTAB
  0
TABLE
  2
VIEW
  5
6
330
0
100
AcDbSymbolTable
 70
     0
  0
ENDTAB
  0
TABLE
  2
UCS
  5
7
330
0
100
AcDbSymbolTable
 70
     0
  0
ENDTAB
  0
TABLE
  2
APPID
  5
9
330
0
100
AcDbSymbolTable
 70
     1
  0
APPID
  5
12
330
9
100
AcDbSymbolTableRecord
100
AcDbRegAppTableRecord
  2
ACAD
 70
     0
  0
ENDTAB
  0
TABLE
  2
DIMSTYLE
  5
A
330
0
100
AcDbSymbolTable
 70
     1
100
AcDbDimStyleTable
 71
     0
  0
DIMSTYLE
105
27
330
A
100
AcDbSymbolTableRecord
100
AcDbDimStyleTableRecord
  2
ISO-25
 70
     0
 41
2.5
 42
0.625
 43
3.75
 44
1.25
 73
     0
 74
     0
 77
     1
 78
     8
140
2.5
141
2.5
143
0.03937007874016
147
0.625
171
     3
172
     1
271
     2
272
     2
274
     3
278
    44
283
     0
284
     8
340
11
  0
ENDTAB
  0
TABLE
  2
BLOCK_RECORD
  5
1
330
0
100
AcDbSymbolTable
 70
     1
  0
BLOCK_RECORD
  5
1F
330
1
100
AcDbSymbolTableRecord
100
AcDbBlockTableRecord
  2
*Model_Space
340
22
  0
BLOCK_RECORD
  5
1B
330
1
100
AcDbSymbolTableRecord
100
AcDbBlockTableRecord
  2
*Paper_Space
340
1E
  0
BLOCK_RECORD
  5
23
330
1
100
AcDbSymbolTableRecord
100
AcDbBlockTableRecord
  2
*Paper_Space0
340
26
  0
ENDTAB
  0
ENDSEC
  0
SECTION
  2
BLOCKS
  0
BLOCK
  5
20
330
1F
100
AcDbEntity
  8
0
100
AcDbBlockBegin
  2
*Model_Space
 70
     0
 10
0.0
 20
0.0
 30
0.0
  3
*Model_Space
  1

  0
ENDBLK
  5
21
330
1F
100
AcDbEntity
  8
0
100
AcDbBlockEnd
  0
BLOCK
  5
1C
330
1B
100
AcDbEntity
 67
     1
  8
0
100
AcDbBlockBegin
  2
*Paper_Space
 70
     0
 10
0.0
 20
0.0
 30
0.0
  3
*Paper_Space
  1

  0
ENDBLK
  5
1D
330
1B
100
AcDbEntity
 67
     1
  8
0
100
AcDbBlockEnd
  0
BLOCK
  5
24
330
23
100
AcDbEntity
  8
0
100
AcDbBlockBegin
  2
*Paper_Space0
 70
     0
 10
0.0
 20
0.0
 30
0.0
  3
*Paper_Space0
  1

  0
ENDBLK
  5
25
330
23
100
AcDbEntity
  8
0
100
AcDbBlockEnd
  0
ENDSEC
  0
SECTION
  2
ENTITIES
  0
LWPOLYLINE
  5
46
330
1F
100
AcDbEntity
  8
0
100
AcDbPolyline
 90
        7
 70
     0
 43
0.0
 10
77.23120256537413
 20
204.8506695908502
 10
88.39190463138356
 20
190.1760160335583
 10
90.74152538068437
 20
182.5451960454651
 10
98.9652007007993
 20
181.9582103180777
 10
112.4755235161095
 20
196.6328638753696
 10
114.237740426866
 20
204.8506695908502
 10
114.8251453444351
 20
211.894503851556
  0
LWPOLYLINE
  5
47
330
1F
100
AcDbEntity
  8
0
100
AcDbPolyline
 90
        7
 70
     0
 43
0.0
 10
71.94455399115383
 20
229.5040881203062
 10
86.62968772062697
 20
237.1349074168924
 10
99.55260561836816
 20
238.3088802546814
 10
107.7762809384831
 20
237.1349074168924
 10
118.9369830044926
 20
231.2650459939757
 10
118.9369830044926
 20
231.2650459939757
 10
121.2866048328181
 20
223.6342266973895
  0
ARC
  5
48
330
1F
100
AcDbEntity
  8
0
100
AcDbCircle
 10
65.64805265571635
 20
208.5730560654528
 30
0.0
 40
16.65708796141677
100
AcDbArc
 50
69.9559333710837
 51
157.9386867631629
  0
ARC
  5
49
330
1F
100
AcDbEntity
  8
0
100
AcDbCircle
 10
53.90678857673653
 20
232.8733757652169
 30
0.0
 40
18.88852229090435
100
AcDbArc
 50
260.5266872374054
 51
317.4993190743744
  0
ARC
  5
4C
330
1F
100
AcDbEntity
  8
0
100
AcDbCircle
 10
128.8529946882285
 20
217.0923497879636
 30
0.0
 40
15.14842191304289
100
AcDbArc
 50
38.72602063114933
 51
144.0663492328063
  0
ARC
  5
4D
330
1F
100
AcDbEntity
  8
0
100
AcDbCircle
 10
128.6291716975546
 20
238.0321471300928
 30
0.0
 40
16.6254415879865
100
AcDbArc
 50
226.4514928166403
 51
316.4106576946087
  0
CIRCLE
  5
4F
330
1F
100
AcDbEntity
  8
0
100
AcDbCircle
 10
83.10525605716339
 20
210.1335452863795
 30
0.0
 40
3.424485178671111
  0
CIRCLE
  5
50
330
1F
100
AcDbEntity
  8
0
100
AcDbCircle
 10
106.6014700243202
 20
212.4814895789433
 30
0.0
 40
3.424485178671208
  0
ARC
  5
51
330
1F
100
AcDbEntity
  8
0
100
AcDbCircle
 10
96.32229572881771
 20
193.4044399544639
 30
0.0
 40
3.828980654339973
100
AcDbArc
 50
147.5506938094819
 51
4.396060948225013
  0
LWPOLYLINE
  5
52
330
1F
100
AcDbEntity
  8
0
100
AcDbPolyline
 90
        2
 70
     0
 43
0.0
 10
96.61557887247363
 20
190.7630024524528
 10
96.61557887247363
 20
185.4801267569234
  0
LWPOLYLINE
  5
53
330
1F
100
AcDbEntity
  8
0
100
AcDbPolyline
 90
        2
 70
     0
 43
0.0
 10
77.8186074829431
 20
229.5040881203062
 10
70.1823381594221
 20
244.7657274049857
  0
LWPOLYLINE
  5
56
330
1F
100
AcDbEntity
  8
0
100
AcDbPolyline
 90
        7
 70
     0
 43
0.0
 10
103.0770383608565
 20
186.067113175818
 10
110.1259027668087
 20
169.6315010533496
 10
118.9369830044926
 20
164.3486260493273
 10
127.7480632421765
 20
162.0006810652564
 10
139.4961702257547
 20
158.4787646264105
 10
146.5450346317069
 20
158.4787646264105
 10
155.3561148693908
 20
156.7178060612342
  0
LWPOLYLINE
  5
57
330
1F
100
AcDbEntity
  8
0
100
AcDbPolyline
 90
       15
 70
     0
 43
0.0
 10
157.7057366977163
 20
164.9356117767148
 10
155.9435208659846
 20
156.1308196423397
 10
158.8805476118792
 20
142.6301382313297
 10
159.467952529448
 20
141.4561660850478
 10
162.9923852719365
 20
133.8253460969546
 10
162.9923852719365
 20
123.8465818162974
 10
172.9782764237833
 20
107.9979561127236
 10
177.6775190014096
 20
104.4760389823707
 10
178.8523299155725
 20
116.8027482470987
 10
171.2160595130266
 20
129.1294575118267
 10
171.8034655096204
 20
136.7602768084129
 10
167.6916278495631
 20
146.1520553616826
 10
166.5168169354002
 20
153.1958889308813
 10
167.6916278495631
 20
160.239723191587
 10
167.6916278495631
 20
163.7616396304329
  0
LWPOLYLINE
  5
58
330
1F
100
AcDbEntity
  8
0
100
AcDbPolyline
 90
        5
 70
     0
 43
0.0
 10
167.6916278495631
 20
159.065750353798
 10
177.0901130048158
 20
163.7616396304329
 10
192.3626527308828
 20
166.1095846145037
 10
202.3485438827295
 20
171.3924596185261
 10
204.1107597144613
 20
180.1972517529012
  0
LWPOLYLINE
  5
5A
330
1F
100
AcDbEntity
  8
0
100
AcDbPolyline
 90
       49
 70
     0
 43
0.0
 10
205.872975546193
 20
183.7191688832541
 10
201.1737329685666
 20
169.6315010533496
 10
201.1737329685666
 20
161.4136953378689
 10
202.3485438827295
 20
144.9780832154005
 10
206.4603815427868
 20
141.4561660850478
 10
208.2225973745186
 20
136.7602768084129
 10
210.5722192028443
 20
138.5212353735894
 10
211.1596241204132
 20
142.6301382313297
 10
210.5722192028443
 20
150.2609582194229
 10
211.1596241204132
 20
159.065750353798
 10
211.747030117007
 20
167.8705424881732
 10
208.8100033711124
 20
177.8493074603372
 10
212.3344350345761
 20
172.566431764808
 10
213.509245948739
 20
181.9582103180777
 10
213.509245948739
 20
188.4150574683818
 10
212.3344350345761
 20
207.7856003023085
 10
220.5581103546909
 20
227.1561431362353
 10
217.0336776122025
 20
229.5040881203062
 10
219.9707043580971
 20
243.0047688398092
 10
223.4951371005855
 20
250.6355888279024
 10
225.8447578498863
 20
254.7444916856427
 10
227.6069747606431
 20
262.3753116737359
 10
230.5440015065377
 20
264.7232566578069
 10
230.5440015065377
 20
268.2451730966527
 10
232.8936222558385
 20
269.4191459344416
 10
238.1802708300587
 20
272.3540766459
 10
237.5928659124896
 20
277.6369516499223
 10
232.3062173382694
 20
280.5718823613807
 10
228.781784595781
 20
277.0499652310278
 10
228.781784595781
 20
271.7670902270056
 10
225.8447578498863
 20
267.0712009503708
 10
223.4951371005855
 20
259.4403809622775
 10
218.7958934439344
 20
253.5705195393608
 10
217.0336776122025
 20
244.1787416775981
 10
214.6840568629016
 20
235.373949543223
 10
209.3974082886814
 20
228.3301152825173
 10
211.1596241204132
 20
226.5691574088478
 10
209.3974082886814
 20
227.1561431362353
 10
208.8100033711124
 20
218.9383374207547
 10
201.7611389651605
 20
213.0684759978379
 10
190.0130309025572
 20
213.6554617252254
 10
185.3137883249306
 20
214.2424481441198
 10
175.9153031696779
 20
216.5903924366838
 10
163.5797901895056
 20
221.873268132213
 10
157.7057366977163
 20
222.4602538596005
 10
151.2442772093332
 20
223.6342266973895
 10
143.6080078858122
 20
223.6342266973895
 10
140.0835762223485
 20
224.221212424777
 10
135.9717385622912
 20
223.6342266973895
  0
LWPOLYLINE
  5
5C
330
1F
100
AcDbEntity
  8
0
100
AcDbPolyline
 90
       10
 70
     0
 43
0.0
 10
187.6634101532564
 20
164.3486260493273
 10
188.2508150708252
 20
154.3698617686702
 10
189.4256259849882
 20
147.9130139268589
 10
188.8382210674191
 20
144.3910967965061
 10
195.2996794767774
 20
144.3910967965061
 10
195.8870854733712
 20
150.8479446383173
 10
197.0618953085091
 20
157.8917782075161
 10
195.8870854733712
 20
164.3486260493273
 10
197.0618953085091
 20
167.2835567607856
 10
194.7122745592083
 20
168.4575289070677
  0
LWPOLYLINE
  5
5D
330
1F
100
AcDbEntity
  8
0
100
AcDbPolyline
 90
       18
 70
     0
 43
0.0
 10
117.1747671727606
 20
164.3486260493273
 10
110.7133076843778
 20
154.3698617686702
 10
111.3007136809714
 20
140.8691803576602
 10
106.6014700243202
 20
128.5424710929322
 10
106.6014700243202
 20
123.8465818162974
 10
108.363686935077
 20
116.2157618282043
 10
115.999956258598
 20
112.1068589704639
 10
117.1747671727606
 20
117.9767203933806
 10
118.3495770078988
 20
122.6726096700154
 10
118.3495770078988
 20
132.6513739506726
 10
121.8740097503872
 20
140.2821939387657
 10
117.7621720903297
 20
147.9130139268589
 10
119.5243879220614
 20
144.3910967965061
 10
123.0488206645499
 20
150.2609582194229
 10
123.0488206645499
 20
153.7828753497757
 10
125.3984414138507
 20
157.3047924801286
 10
126.5732523280136
 20
160.8267089189745
 10
128.3354681597453
 20
162.5876674841509
  0
LINE
  5
5E
330
1F
100
AcDbEntity
  8
0
100
AcDbLine
 10
92.50374121241623
 20
225.9821709899533
 30
0.0
 11
91.32893137727819
 21
220.1123095670366
 31
0.0
  0
LINE
  5
5F
330
1F
100
AcDbEntity
  8
0
100
AcDbLine
 10
91.32893137727819
 20
220.1123095670366
 30
0.0
 11
96.61557887247363
 21
224.8081988436714
 31
0.0
  0
LINE
  5
60
330
1F
100
AcDbEntity
  8
0
100
AcDbLine
 10
99.55260561836816
 20
226.5691574088478
 30
0.0
 11
100.1400116149619
 21
219.5253231481422
 31
0.0
  0
LINE
  5
61
330
1F
100
AcDbEntity
  8
0
100
AcDbLine
 10
81.34304022543153
 20
207.7856003023085
 30
0.0
 11
85.45487788548895
 21
211.894503851556
 31
0.0
  0
LINE
  5
62
330
1F
100
AcDbEntity
  8
0
100
AcDbLine
 10
105.4266591101574
 20
210.1335452863795
 30
0.0
 11
108.9510918526458
 21
214.2424481441198
 31
0.0
  0
ENDSEC
  0
SECTION
  2
OBJECTS
  0
DICTIONARY
  5
C
330
0
100
AcDbDictionary
281
     1
  3
ACAD_GROUP
350
D
  3
ACAD_LAYOUT
350
1A
  3
ACAD_MLINESTYLE
350
17
  3
ACAD_PLOTSETTINGS
350
19
  3
ACAD_PLOTSTYLENAME
350
E
  3
AcDbVariableDictionary
350
2B
  0
DICTIONARY
  5
D
102
{ACAD_REACTORS
330
C
102
}
330
C
100
AcDbDictionary
281
     1
  0
DICTIONARY
  5
1A
102
{ACAD_REACTORS
330
C
102
}
330
C
100
AcDbDictionary
281
     1
  3
Layout1
350
1E
  3
Layout2
350
26
  3
Model
350
22
  0
DICTIONARY
  5
17
102
{ACAD_REACTORS
330
C
102
}
330
C
100
AcDbDictionary
281
     1
  3
Standard
350
18
  0
DICTIONARY
  5
19
102
{ACAD_REACTORS
330
C
102
}
330
C
100
AcDbDictionary
281
     1
  0
ACDBDICTIONARYWDFLT
  5
E
102
{ACAD_REACTORS
330
C
102
}
330
C
100
AcDbDictionary
281
     1
  3
Normal
350
F
100
AcDbDictionaryWithDefault
340
F
  0
DICTIONARY
  5
2B
102
{ACAD_REACTORS
330
C
102
}
330
C
100
AcDbDictionary
281
     1
  3
DIMASSOC
350
2D
  3
HIDETEXT
350
2C
  0
LAYOUT
  5
1E
102
{ACAD_REACTORS
330
1A
102
}
330
1A
100
AcDbPlotSettings
  1

  2
C:\AutoCAD LT 2002\plotters\DWF ePlot (optimized for plotting).pc3
  4

  6

 40
0.0
 41
0.0
 42
0.0
 43
0.0
 44
0.0
 45
0.0
 46
0.0
 47
0.0
 48
0.0
 49
0.0
140
0.0
141
0.0
142
1.0
143
1.0
 70
   688
 72
     0
 73
     0
 74
     5
  7

 75
    16
147
1.0
148
0.0
149
0.0
100
AcDbLayout
  1
Layout1
 70
     1
 71
     1
 10
0.0
 20
0.0
 11
420.0
 21
297.0
 12
0.0
 22
0.0
 32
0.0
 14
1.000000000000000E+20
 24
1.000000000000000E+20
 34
1.000000000000000E+20
 15
-1.000000000000000E+20
 25
-1.000000000000000E+20
 35
-1.000000000000000E+20
146
0.0
 13
0.0
 23
0.0
 33
0.0
 16
1.0
 26
0.0
 36
0.0
 17
0.0
 27
1.0
 37
0.0
 76
     0
330
1B
  0
LAYOUT
  5
26
102
{ACAD_REACTORS
330
1A
102
}
330
1A
100
AcDbPlotSettings
  1

  2
C:\AutoCAD LT 2002\plotters\DWF ePlot (optimized for plotting).pc3
  4

  6

 40
0.0
 41
0.0
 42
0.0
 43
0.0
 44
0.0
 45
0.0
 46
0.0
 47
0.0
 48
0.0
 49
0.0
140
0.0
141
0.0
142
1.0
143
1.0
 70
   688
 72
     0
 73
     0
 74
     5
  7

 75
    16
147
1.0
148
0.0
149
0.0
100
AcDbLayout
  1
Layout2
 70
     1
 71
     2
 10
0.0
 20
0.0
 11
12.0
 21
9.0
 12
0.0
 22
0.0
 32
0.0
 14
0.0
 24
0.0
 34
0.0
 15
0.0
 25
0.0
 35
0.0
146
0.0
 13
0.0
 23
0.0
 33
0.0
 16
1.0
 26
0.0
 36
0.0
 17
0.0
 27
1.0
 37
0.0
 76
     0
330
23
  0
LAYOUT
  5
22
102
{ACAD_REACTORS
330
1A
102
}
330
1A
100
AcDbPlotSettings
  1

  2
C:\AutoCAD LT 2002\plotters\DWF ePlot (optimized for plotting).pc3
  4

  6

 40
0.0
 41
0.0
 42
0.0
 43
0.0
 44
0.0
 45
0.0
 46
0.0
 47
0.0
 48
0.0
 49
0.0
140
0.0
141
0.0
142
1.0
143
1.0
 70
  1712
 72
     0
 73
     0
 74
     0
  7

 75
     0
147
1.0
148
0.0
149
0.0
100
AcDbLayout
  1
Model
 70
     1
 71
     0
 10
0.0
 20
0.0
 11
12.0
 21
9.0
 12
0.0
 22
0.0
 32
0.0
 14
0.0
 24
0.0
 34
0.0
 15
0.0
 25
0.0
 35
0.0
146
0.0
 13
0.0
 23
0.0
 33
0.0
 16
1.0
 26
0.0
 36
0.0
 17
0.0
 27
1.0
 37
0.0
 76
     0
330
1F
  0
MLINESTYLE
  5
18
102
{ACAD_REACTORS
330
17
102
}
330
17
100
AcDbMlineStyle
  2
STANDARD
 70
     0
  3

 62
   256
 51
90.0
 52
90.0
 71
     2
 49
0.5
 62
   256
  6
BYLAYER
 49
-0.5
 62
   256
  6
BYLAYER
  0
ACDBPLACEHOLDER
  5
F
102
{ACAD_REACTORS
330
E
102
}
330
E
  0
DICTIONARYVAR
  5
2D
102
{ACAD_REACTORS
330
2B
102
}
330
2B
100
DictionaryVariables
280
     0
  1
2
  0
DICTIONARYVAR
  5
2C
102
{ACAD_REACTORS
330
2B
102
}
330
2B
100
DictionaryVariables
280
     0
  1
1
  0
ENDSEC
  0
EOF
